<svg width="57" height="58" viewBox="0 0 57 58" fill="none" xmlns="http://www.w3.org/2000/svg">
<circle cx="28.5" cy="28.7143" r="28.5" fill="#C7E3FA" fill-opacity="0.5"/>
<path d="M33.5 23C33.5 24.1935 33.0259 25.3381 32.182 26.182C31.3381 27.0259 30.1935 27.5 29 27.5C27.8065 27.5 26.6619 27.0259 25.818 26.182C24.9741 25.3381 24.5 24.1935 24.5 23C24.5 21.8065 24.9741 20.6619 25.818 19.818C26.6619 18.9741 27.8065 18.5 29 18.5C30.1935 18.5 31.3381 18.9741 32.182 19.818C33.0259 20.6619 33.5 21.8065 33.5 23ZM41 26C41 26.7956 40.6839 27.5587 40.1213 28.1213C39.5587 28.6839 38.7956 29 38 29C37.2044 29 36.4413 28.6839 35.8787 28.1213C35.3161 27.5587 35 26.7956 35 26C35 25.2044 35.3161 24.4413 35.8787 23.8787C36.4413 23.3161 37.2044 23 38 23C38.7956 23 39.5587 23.3161 40.1213 23.8787C40.6839 24.4413 41 25.2044 41 26ZM35 36.5C35 34.9087 34.3679 33.3826 33.2426 32.2574C32.1174 31.1321 30.5913 30.5 29 30.5C27.4087 30.5 25.8826 31.1321 24.7574 32.2574C23.6321 33.3826 23 34.9087 23 36.5V41H35V36.5ZM23 26C23 26.7956 22.6839 27.5587 22.1213 28.1213C21.5587 28.6839 20.7957 29 20 29C19.2044 29 18.4413 28.6839 17.8787 28.1213C17.3161 27.5587 17 26.7956 17 26C17 25.2044 17.3161 24.4413 17.8787 23.8787C18.4413 23.3161 19.2044 23 20 23C20.7957 23 21.5587 23.3161 22.1213 23.8787C22.6839 24.4413 23 25.2044 23 26ZM38 41V36.5C38.0022 34.9749 37.6149 33.4745 36.875 32.141C37.54 31.9708 38.2351 31.9548 38.9073 32.0941C39.5795 32.2334 40.2109 32.5244 40.7535 32.9449C41.2961 33.3653 41.7355 33.9042 42.0382 34.5203C42.3409 35.1364 42.4988 35.8135 42.5 36.5V41H38ZM21.125 32.141C20.3851 33.4746 19.9979 34.9749 20 36.5V41H15.5V36.5C15.4997 35.8131 15.6567 35.1352 15.9589 34.5183C16.2611 33.9014 16.7006 33.3619 17.2436 32.9411C17.7866 32.5203 18.4187 32.2295 19.0915 32.0908C19.7643 31.9521 20.4599 31.9693 21.125 32.141Z" fill="#0F67B1"/>
</svg>
