<svg width="57" height="58" viewBox="0 0 57 58" fill="none" xmlns="http://www.w3.org/2000/svg">
<circle cx="28.5" cy="28.7143" r="28.5" fill="#C7E3FA" fill-opacity="0.5"/>
<path d="M40.2506 22.4643C40.941 22.4643 41.5006 23.0239 41.5006 23.7143C41.5006 24.4046 40.941 24.9643 40.2506 24.9643V36.2143C40.941 36.2143 41.5006 36.7739 41.5006 37.4643C41.5006 38.1546 40.941 38.7143 40.2506 38.7143H17.7506C17.0602 38.7143 16.5006 38.1546 16.5006 37.4643C16.5006 36.7739 17.0602 36.2143 17.7506 36.2143V24.9643C17.0602 24.9643 16.5006 24.4046 16.5006 23.7143C16.5006 23.0239 17.0602 22.4643 17.7506 22.4643H40.2506ZM20.2506 36.2143H37.7506V24.9643H20.2506V36.2143ZM22.7506 32.4643V28.7143C22.7506 28.0239 23.3102 27.4643 24.0006 27.4643C24.691 27.4643 25.2506 28.0239 25.2506 28.7143V32.4643C25.2506 33.1546 24.691 33.7143 24.0006 33.7143C23.3102 33.7143 22.7506 33.1546 22.7506 32.4643ZM27.7506 32.4643V28.7143C27.7506 28.0239 28.3102 27.4643 29.0006 27.4643C29.691 27.4643 30.2506 28.0239 30.2506 28.7143V32.4643C30.2506 33.1546 29.691 33.7143 29.0006 33.7143C28.3102 33.7143 27.7506 33.1546 27.7506 32.4643ZM32.7506 32.4643V28.7143C32.7506 28.0239 33.3102 27.4643 34.0006 27.4643C34.691 27.4643 35.2506 28.0239 35.2506 28.7143V32.4643C35.2506 33.1546 34.691 33.7143 34.0006 33.7143C33.3102 33.7143 32.7506 33.1546 32.7506 32.4643ZM28.6161 13.7753C28.9077 13.681 29.2256 13.696 29.5084 13.8217L40.7584 18.8217L40.8719 18.8803C41.4221 19.1947 41.6561 19.8806 41.3932 20.4721C41.1303 21.0636 40.4644 21.3496 39.8624 21.152L39.7428 21.1069L29.0006 16.3315L18.2584 21.1069C17.6276 21.3872 16.8884 21.103 16.608 20.4721C16.3276 19.8412 16.6119 19.1021 17.2428 18.8217L28.4928 13.8217L28.6161 13.7753Z" fill="#0F67B1"/>
</svg>
