<svg width="57" height="58" viewBox="0 0 57 58" fill="none" xmlns="http://www.w3.org/2000/svg">
<circle cx="28.5" cy="28.7143" r="28.5" fill="#C7E3FA" fill-opacity="0.5"/>
<path d="M39 24C39 23.6685 38.8682 23.3506 38.6338 23.1162C38.4286 22.911 38.1595 22.7845 37.8733 22.7561L37.75 22.75H32.5303C32.3455 23.2717 32.0502 23.7525 31.6514 24.1514C31.0361 24.7666 30.2294 25.1464 29.3711 25.2317L29 25.25C28.0054 25.25 27.0519 24.8546 26.3486 24.1514C25.9498 23.7525 25.6545 23.2717 25.4697 22.75H20.25C19.9185 22.75 19.6006 22.8818 19.3662 23.1162C19.1318 23.3506 19 23.6685 19 24V35.25C19 35.5815 19.1318 35.8994 19.3662 36.1338C19.6006 36.3682 19.9185 36.5 20.25 36.5H37.75C38.0815 36.5 38.3994 36.3682 38.6338 36.1338C38.8682 35.8994 39 35.5815 39 35.25V24ZM26.5 29C26.5 28.6685 26.3682 28.3506 26.1338 28.1162C25.8994 27.8818 25.5815 27.75 25.25 27.75C24.9185 27.75 24.6006 27.8818 24.3662 28.1162C24.1318 28.3506 24 28.6685 24 29L24.0061 29.1233C24.0345 29.4095 24.161 29.6786 24.3662 29.8838C24.6006 30.1182 24.9185 30.25 25.25 30.25C25.5815 30.25 25.8994 30.1182 26.1338 29.8838C26.3682 29.6494 26.5 29.3315 26.5 29ZM35.25 31.5C35.9404 31.5 36.5 32.0596 36.5 32.75C36.5 33.4404 35.9404 34 35.25 34H32.75C32.0596 34 31.5 33.4404 31.5 32.75C31.5 32.0596 32.0596 31.5 32.75 31.5H35.25ZM36.5 26.5C37.1904 26.5 37.75 27.0596 37.75 27.75C37.75 28.4404 37.1904 29 36.5 29H32.75C32.0596 29 31.5 28.4404 31.5 27.75C31.5 27.0596 32.0596 26.5 32.75 26.5H36.5ZM29 29C29 29.8168 28.7292 30.6029 28.2444 31.2485C28.9258 31.7594 29.4745 32.438 29.824 33.2249L29.9656 33.5825L30.0022 33.7046C30.1527 34.3202 29.8152 34.9617 29.2051 35.178C28.5951 35.3942 27.9294 35.1085 27.6584 34.5359L27.6096 34.4175L27.5376 34.238C27.1471 33.3596 26.2678 32.75 25.25 32.75C24.7328 32.7499 24.2283 32.9105 23.8059 33.209C23.3835 33.5075 23.0629 33.9298 22.8904 34.4175C22.6599 35.0678 21.9466 35.4079 21.2961 35.178C20.6453 34.9477 20.3042 34.2333 20.5344 33.5825C20.8644 32.6503 21.4642 31.8397 22.2544 31.2485C21.8437 30.7014 21.5862 30.0538 21.5183 29.3711L21.5 29C21.5 28.0054 21.8954 27.0519 22.5986 26.3486C23.3019 25.6454 24.2554 25.25 25.25 25.25C26.2446 25.25 27.1981 25.6454 27.9014 26.3486C28.6046 27.0519 29 28.0054 29 29ZM30.2439 20.1267C30.2155 19.8405 30.089 19.5714 29.8838 19.3662C29.6786 19.161 29.4095 19.0345 29.1233 19.0061L29 19C28.6685 19 28.3506 19.1318 28.1162 19.3662C27.8818 19.6006 27.75 19.9185 27.75 20.25V21.5C27.75 21.8315 27.8818 22.1494 28.1162 22.3838C28.3506 22.6182 28.6685 22.75 29 22.75L29.1233 22.7439C29.4095 22.7155 29.6786 22.589 29.8838 22.3838C30.1182 22.1494 30.25 21.8315 30.25 21.5V20.25L30.2439 20.1267ZM37.75 20.25C38.7446 20.25 39.6981 20.6454 40.4014 21.3486C41.1046 22.0519 41.5 23.0054 41.5 24V35.25C41.5 36.2446 41.1046 37.1981 40.4014 37.9014C39.6981 38.6046 38.7446 39 37.75 39H20.25C19.2554 39 18.3019 38.6046 17.5986 37.9014C16.8954 37.1981 16.5 36.2446 16.5 35.25V24C16.5 23.0054 16.8954 22.0519 17.5986 21.3486C18.3019 20.6454 19.2554 20.25 20.25 20.25H25.25C25.25 19.2554 25.6454 18.3019 26.3486 17.5986C27.0519 16.8954 28.0054 16.5 29 16.5C29.9946 16.5 30.9481 16.8954 31.6514 17.5986C32.3546 18.3019 32.75 19.2554 32.75 20.25H37.75Z" fill="#0F67B1"/>
</svg>
