<svg width="57" height="58" viewBox="0 0 57 58" fill="none" xmlns="http://www.w3.org/2000/svg">
<circle cx="28.5" cy="28.7143" r="28.5" fill="#C7E3FA" fill-opacity="0.5"/>
<path d="M29.5902 17.12C29.4035 17.0399 29.2024 16.9987 28.9992 16.9987C28.796 16.9987 28.595 17.0399 28.4082 17.12L17.9082 21.62C17.6376 21.7353 17.4069 21.9275 17.2447 22.1729C17.0826 22.4183 16.9961 22.7059 16.9961 23C16.9961 23.2941 17.0826 23.5817 17.2447 23.8271C17.4069 24.0725 17.6376 24.2647 17.9082 24.38L21.8742 26.0765C22.0214 25.91 22.2038 25.7783 22.4082 25.691L28.4082 23.12C28.5898 23.0391 28.7856 22.995 28.9843 22.9905C29.1831 22.9859 29.3807 23.0209 29.5658 23.0934C29.7509 23.1658 29.9198 23.2744 30.0625 23.4127C30.2053 23.551 30.3192 23.7163 30.3975 23.899C30.4758 24.0817 30.5171 24.2782 30.5188 24.4769C30.5205 24.6757 30.4828 24.8728 30.4076 25.0569C30.3325 25.2409 30.2216 25.4082 30.0813 25.549C29.9409 25.6898 29.774 25.8013 29.5902 25.877L25.4997 27.632L28.4097 28.8785C28.5963 28.9583 28.7971 28.9995 29 28.9995C29.2029 28.9995 29.4037 28.9583 29.5902 28.8785L40.0902 24.3785C40.3599 24.2628 40.5897 24.0705 40.7512 23.8255C40.9127 23.5805 40.9988 23.2935 40.9988 23C40.9988 22.7065 40.9127 22.4195 40.7512 22.1745C40.5897 21.9295 40.3599 21.7372 40.0902 21.6215L29.5902 17.1215V17.12ZM18.9642 28.0955L21.4992 29.18V35.333C20.9798 35.2149 20.4539 35.1277 19.9242 35.072C19.5824 35.0361 19.2633 34.8839 19.0203 34.6409C18.7773 34.3979 18.6251 34.0788 18.5892 33.737C18.392 31.8484 18.5188 29.9399 18.9642 28.094V28.0955ZM27.9492 38.8595C26.9352 37.8646 25.771 37.0354 24.4992 36.4025V30.467L27.2262 31.637C27.7865 31.8772 28.3897 32.001 28.9992 32.001C29.6088 32.001 30.212 31.8772 30.7722 31.637L39.0342 28.0955C39.4823 29.941 39.6091 31.8499 39.4092 33.7385C39.3733 34.0803 39.2211 34.3994 38.9781 34.6424C38.7351 34.8854 38.416 35.0376 38.0742 35.0735C35.048 35.3915 32.219 36.7262 30.0492 38.8595C29.7688 39.1343 29.3918 39.2883 28.9992 39.2883C28.6066 39.2883 28.2296 39.1343 27.9492 38.8595ZM22.9992 41C23.397 41 23.7786 40.842 24.0599 40.5607C24.3412 40.2794 24.4992 39.8978 24.4992 39.5V36.4025C23.5452 35.9285 22.5381 35.5685 21.4992 35.333V39.5C21.4992 39.8978 21.6573 40.2794 21.9386 40.5607C22.2199 40.842 22.6014 41 22.9992 41Z" fill="#0F67B1"/>
</svg>
